<svg fill="none" xmlns="http://www.w3.org/2000/svg" viewBox="0 0 24 24"><mask id="Cloud__a" fill="#fff"><path fill-rule="evenodd" clip-rule="evenodd" d="M17 19.5H7a5 5 0 0 1-1.444-9.788C5.974 6.77 8.7 4.5 12 4.5s6.026 2.27 6.444 5.212A5 5 0 0 1 17 19.5Z"/></mask><path d="m5.556 9.712.432 1.436.918-.276.135-.95-1.485-.21Zm12.888 0-1.485.21.135.95.918.276.432-1.436ZM17 18H7v3h10v-3ZM.5 14.5A6.5 6.5 0 0 0 7 21v-3a3.5 3.5 0 0 1-3.5-3.5h-3Zm4.623-6.224A6.502 6.502 0 0 0 .5 14.5h3a3.502 3.502 0 0 1 2.488-3.352l-.865-2.872ZM12 3C8.035 3 4.605 5.742 4.07 9.5l2.97.423C7.344 7.799 9.366 6 12 6V3Zm7.93 6.5C19.395 5.743 15.965 3 12 3v3c2.636 0 4.657 1.8 4.96 3.923l2.97-.422Zm3.57 5a6.5 6.5 0 0 0-4.623-6.224l-.865 2.872A3.502 3.502 0 0 1 20.5 14.5h3ZM17 21a6.5 6.5 0 0 0 6.5-6.5h-3A3.5 3.5 0 0 1 17 18v3Z" fill="#000" mask="url(#Cloud__a)"/></svg>