<svg fill="none" xmlns="http://www.w3.org/2000/svg" viewBox="0 0 65 64"><path d="M2.84 53.05c.232-.812 2.446-5.52 2.446-5.52-.684-11.06 5.375-24.808 7.563-27.655-1.497 3.14-6.095 15.297-5.829 25.378 2.41-3.216 5.046-6.163 8.823-9.34 1.83-9.1 11.167-22.702 15.674-24.541-3.493 2.849-11.623 14.657-13.669 23.035 4.093-3.292 8.082-6.21 12.919-8.83 4.31-6.17 11.466-13.723 15.528-14.925-4.214 2.935-12.349 13.321-12.349 13.321.066-.012 4.783-2.393 10.564-4.272.296-.934 3.223-4.005 6.627-6.089.298-.091-4.434 3.382-4.779 5.518 3.976-1.16 11.502-2.549 15.03-2.147-3.023.422-8.97 1.448-11.558 2.196 4.533.393 7.808 1.38 7.562 1.398-.975-.123-6.722-.933-10.488-.56-3.355.986-5.813 1.984-9.416 3.574 5.52-.33 9.054.229 16.106 2.689-6.925-1.222-13.22-1.77-19.707-.784-5.68 2.82-9.42 5.054-14.16 8.857 10.441-4.452 21.919-3.2 28.358-.45-8.078-1.567-20.31-2.168-32.497 3.81l-.024-.047c-3.282 2.924-5.286 5.027-7.37 7.946 7.848-5.252 24.898.639 28.89 1.833C31.448 46.142 12 41.647 5.316 49.912c-.616 1.183-1.111 2.338-1.412 3.436l-1.064-.297Z" fill="url(#GarnishLogo__a)" stroke="url(#GarnishLogo__b)" stroke-width=".5"/><defs><linearGradient id="GarnishLogo__a" x1="32.115" y1="10.652" x2="32.115" y2="53.348" gradientUnits="userSpaceOnUse"><stop stop-color="#96CF24"/><stop offset="1" stop-color="#006838"/></linearGradient><linearGradient id="GarnishLogo__b" x1="32.115" y1="10.652" x2="32.115" y2="53.348" gradientUnits="userSpaceOnUse"><stop stop-color="#96CF24"/><stop offset="1" stop-color="#006838"/></linearGradient></defs></svg>