<svg width="24" height="24" viewBox="0 0 24 24" fill="none" xmlns="http://www.w3.org/2000/svg">
<mask id="path-1-inside-1_12_909" fill="white">
<path fill-rule="evenodd" clip-rule="evenodd" d="M14.7614 3.43155C12.5565 4.31879 11 6.47763 11 9C11 12.3137 13.6863 15 17 15C18.4697 15 19.816 14.4716 20.8592 13.5944C20.1066 17.8044 16.4265 21 12 21C7.02944 21 3 16.9706 3 12C3 7.02944 7.02944 3 12 3C12.9633 3 13.8913 3.15134 14.7614 3.43155Z"/>
</mask>
<path d="M14.7614 3.43155L15.3213 4.82311L19.1687 3.27495L15.2212 2.00375L14.7614 3.43155ZM20.8592 13.5944L22.3358 13.8583L23.0649 9.77985L19.8938 12.4463L20.8592 13.5944ZM12.5 9C12.5 7.11059 13.6649 5.48964 15.3213 4.82311L14.2014 2.03998C11.448 3.14793 9.5 5.84467 9.5 9H12.5ZM17 13.5C14.5147 13.5 12.5 11.4853 12.5 9H9.5C9.5 13.1421 12.8579 16.5 17 16.5V13.5ZM19.8938 12.4463C19.1108 13.1047 18.1035 13.5 17 13.5V16.5C18.8359 16.5 20.5211 15.8384 21.8246 14.7424L19.8938 12.4463ZM19.3826 13.3304C18.7556 16.8378 15.6872 19.5 12 19.5V22.5C17.1658 22.5 21.4576 18.771 22.3358 13.8583L19.3826 13.3304ZM12 19.5C7.85786 19.5 4.5 16.1421 4.5 12H1.5C1.5 17.799 6.20101 22.5 12 22.5V19.5ZM4.5 12C4.5 7.85786 7.85786 4.5 12 4.5V1.5C6.20101 1.5 1.5 6.20101 1.5 12H4.5ZM12 4.5C12.8053 4.5 13.5783 4.6264 14.3016 4.85934L15.2212 2.00375C14.2043 1.67628 13.1213 1.5 12 1.5V4.5Z" fill="black" mask="url(#path-1-inside-1_12_909)"/>
</svg>
